<?xml version="1.0" encoding="UTF-8" standalone="no"?>
<!-- Creator: CorelDRAW 2020 (64-Bit) -->

<svg
   xml:space="preserve"
   width="22.340551in"
   height="24.548248in"
   version="1.1"
   style="clip-rule:evenodd;fill-rule:evenodd;image-rendering:optimizeQuality;shape-rendering:geometricPrecision;text-rendering:geometricPrecision"
   viewBox="0 0 22340.544 24548.24"
   id="svg2"
   sodipodi:docname="accessibility-on.svg"
   inkscape:version="1.4 (86a8ad7, 2024-10-11)"
   xmlns:inkscape="http://www.inkscape.org/namespaces/inkscape"
   xmlns:sodipodi="http://sodipodi.sourceforge.net/DTD/sodipodi-0.dtd"
   xmlns="http://www.w3.org/2000/svg"
   xmlns:svg="http://www.w3.org/2000/svg"><sodipodi:namedview
   id="namedview2"
   pagecolor="#ffffff"
   bordercolor="#000000"
   borderopacity="0.25"
   inkscape:showpageshadow="2"
   inkscape:pageopacity="0.0"
   inkscape:pagecheckerboard="0"
   inkscape:deskcolor="#d1d1d1"
   inkscape:document-units="in"
   inkscape:zoom="0.36212649"
   inkscape:cx="1076.9717"
   inkscape:cy="1180.5267"
   inkscape:window-width="2560"
   inkscape:window-height="1057"
   inkscape:window-x="-8"
   inkscape:window-y="892"
   inkscape:window-maximized="1"
   inkscape:current-layer="Layer_x0020_1" />
 <defs
   id="defs1"><style
     type="text/css"
     id="style1">
   <![CDATA[
    .fil0 {fill:#373F47}
   ]]>
  </style></defs>
 <g
   id="Layer_x0020_1"
   inkscape:label="Layer 1"
   inkscape:groupmode="layer"
   transform="translate(-4429.6137,-3356.7223)">
  <metadata
   id="CorelCorpID_0Corel-Layer" />
  
 <path
   style="fill:#e0e7c8;fill-opacity:1;stroke-width:0.596767"
   d="m 1975.4386,2163.1579 v -266.6667 h -239.9097 c -212.0586,0 -241.6921,0.6572 -255.2632,5.6608 -23.1107,8.5208 -80.3263,10.301 -109.654,3.4117 -71.7257,-16.849 -133.6757,-72.4262 -159.4905,-143.0837 l -9.3668,-25.6379 -0.9572,-358.7573 c -1.0737,-402.41985 -2.2317,-382.00787 24.609,-433.78886 20.7941,-40.11606 54.6887,-73.57886 94.0958,-92.89717 42.0724,-20.6249 67.7853,-26.3402 108.5658,-24.13135 58.1944,3.15206 104.5029,23.72503 145.1513,64.48477 35.8925,35.99096 58.7465,82.55571 63.8339,130.06091 l 2.361,22.0465 h 176.1592 c 202.9684,0 198.3172,-0.6024 228.5153,29.5958 19.9482,19.9482 29.5957,42.3264 29.5957,68.6499 0,26.3235 -9.6475,48.7016 -29.5957,68.6499 -30.2044,30.2043 -25.4966,29.5957 -228.9241,29.5957 h -176.5679 v 200 200 l 228.9474,0.027 c 140.5181,0.016 237.5692,1.4255 251.2698,3.6486 43.2367,7.0158 80.1117,34.3821 98.133,72.8284 l 9.3691,19.9877 0.9438,346.4912 0.9438,346.4913 H 2101.821 1975.4386 Z"
   id="path3"
   transform="scale(10.416663)" /><path
   style="fill:#e0e7c8;fill-opacity:1;stroke-width:0.596767"
   d="m 1364.9123,754.32568 c -77.7673,-21.25677 -141.4178,-86.36372 -159.4492,-163.09761 -23.5083,-100.04078 28.8915,-206.36871 122.9191,-249.42367 50.7778,-23.25097 107.3024,-25.84676 160.8575,-7.3871 35.5544,12.25509 62.1675,29.68311 88.7971,58.15025 25.341,27.08949 36.5632,45.88351 48.3319,80.9418 18.7257,55.78297 14.5028,111.95703 -12.4409,165.48995 -25.7644,51.19 -70.141,90.39007 -123.836,109.39066 -31.9294,11.29857 -94.675,14.27379 -125.1795,5.93572 z"
   id="path4"
   transform="scale(10.416663)" /><path
   style="fill:#e0e7c8;fill-opacity:1;stroke-width:0.596767"
   d="m 1803.5088,1477.193 v -71.9298 l 214.9123,-0.052 214.9122,-0.052 108.5293,-188.5445 c 59.691,-103.6994 108.8645,-189.0337 109.2744,-189.6317 0.4098,-0.598 27.7091,14.402 60.665,33.3333 43.8089,25.1658 59.4178,35.8358 58.0525,39.6838 -1.027,2.8947 -58.6118,103.5143 -127.9661,223.599 -69.3544,120.0846 -126.0989,219.9531 -126.0989,221.9298 0,2.42 -83.6692,3.594 -256.1404,3.594 h -256.1403 z"
   id="path5"
   transform="scale(10.416663)" /><path
   style="fill:#e0e7c8;fill-opacity:1;stroke-width:0.596767"
   d="M 1063.1579,2675.0782 C 753.86925,2640.3049 499.24291,2406.4668 438.86545,2101.7544 370.15523,1754.9882 567.12072,1407.712 900,1288.7131 c 69.84933,-24.97 154.6899,-41.3447 214.2148,-41.3447 h 26.1361 v 75.4386 75.4386 h -27.7215 c -37.8856,0 -99.7301,11.1005 -146.03852,26.2125 -225.92755,73.7277 -380.03718,276.7962 -390.1111,514.0449 -5.2654,124.0044 26.32156,235.9768 96.53298,342.1988 30.94303,46.8133 102.13391,118.4505 147.8918,148.8189 67.10979,44.5392 144.06635,76.1885 219.44634,90.2498 52.9081,9.8695 161.8864,8.9419 212.2807,-1.8069 194.4023,-41.4649 344.0811,-168.1195 417.7019,-353.4492 19.7819,-49.7982 28.6885,-93.6088 37.1901,-182.9355 l 1.7533,-18.421 h 73.4317 73.4318 v 30.2514 c 0,57.3765 -16.8976,145.4899 -40.2909,210.0995 -76.9104,212.418 -249.4389,377.4324 -463.7935,443.5939 -89.3741,27.5858 -198.4332,38.1465 -288.8981,27.9755 z"
   id="path6"
   transform="scale(10.416663)" /><path
   style="fill:#123d15;fill-opacity:1;stroke-width:0.469667"
   d="m 951.29717,435.07902 c -40.92403,-8.8524 -74.13156,-28.14395 -109.45746,-63.58811 -23.63017,-23.70926 -28.20917,-29.98386 -40.51264,-55.51447 -16.2907,-33.80443 -22.59365,-59.54468 -22.59365,-92.26887 0,-96.59774 63.1765,-182.145054 156.02283,-211.270532 30.26823,-9.4950086 74.10765,-10.6753925 107.75065,-2.9012035 39.4264,9.1106195 70.3779,25.6381785 99.322,53.0361165 30.6024,28.967765 47.5452,54.509419 59.3182,89.423799 7.9747,23.64974 9.4506,32.25556 10.5429,61.47225 1.5798,42.26109 -2.7792,62.78522 -21.5228,101.33913 -15.4552,31.78975 -34.2529,56.10144 -58.626,75.82262 -20.2546,16.38872 -54.9362,34.30478 -78.0419,40.31539 -19.1976,4.99397 -85.7765,7.68695 -102.20213,4.13388 z"
   id="path1"
   transform="matrix(10.416663,0,0,10.416663,4406.2405,3333.05)" /><path
   style="fill:#123d15;fill-opacity:1;stroke-width:0.469667"
   d="m 1554.7054,1841.7595 v -266.6198 l -243.6994,0.9877 c -217.4633,0.8814 -245.3284,1.482 -258.8308,5.5785 -21.36,6.4805 -63.46117,8.8476 -88.35881,4.9679 -56.40468,-8.7893 -108.27593,-40.6776 -143.1564,-88.0066 -15.30425,-20.7662 -23.82543,-36.9221 -34.75576,-65.8959 l -7.45436,-19.7599 1.12324,-361.3224 c 0.78305,-251.89396 2.06083,-365.90774 4.2191,-376.46253 1.70273,-8.32702 8.54095,-26.34559 15.19606,-40.04126 24.0114,-49.41352 54.14175,-79.88254 102.63039,-103.78398 35.99848,-17.74469 53.38918,-21.92198 91.01819,-21.8628 63.43835,0.0998 109.52705,18.16791 152.14045,59.64351 36.731,35.75035 60.6982,81.7769 67.3002,129.24351 1.6321,11.73485 2.9676,22.38011 2.9676,23.65615 0,1.27604 79.8408,2.84723 177.4241,3.49154 206.5673,1.36389 197.401,0.30149 223.482,25.90231 9.084,8.91666 19.8159,22.4254 23.8489,30.01943 6.4397,12.12593 7.3376,17.00199 7.3735,40.04126 0.035,22.24949 -0.9825,28.33099 -6.6973,40.04126 -8.7492,17.92813 -36.9318,45.99175 -51.2526,51.03625 -8.954,3.15404 -45.4314,4.07789 -192.6123,4.87824 l -181.5663,0.98731 v 201.1191 201.1191 l 238.1764,1.3584 c 260.5606,1.4861 253.1365,1.017 284.9146,18.005 21.0796,11.2687 43.1532,34.6915 54.9254,58.2824 l 10.1758,20.3916 v 344.8123 344.8122 h -124.266 -124.2659 z"
   id="path2"
   transform="matrix(10.416663,0,0,10.416663,4406.2405,3333.05)" /><path
   style="fill:#514d3c;fill-opacity:1;stroke-width:0.469667"
   d="m 1380.733,1157.0711 v -70.4006 l 215.5401,-0.7072 215.5402,-0.7072 108.2417,-188.25687 108.2418,-188.25691 23.4725,12.54347 c 31.421,16.79113 77.7343,44.32192 87.0334,51.73677 l 7.5182,5.99479 -69.6885,121.36254 c -38.3286,66.7494 -95.6785,166.85421 -127.4443,222.45511 l -57.7559,101.0926 -18.5539,1.7524 c -10.2046,0.9638 -125.1119,1.7612 -255.3496,1.772 l -236.7957,0.02 z"
   id="path8"
   transform="matrix(10.416663,0,0,10.416663,4406.2405,3333.05)" /><path
   style="fill:#514d3c;fill-opacity:1;stroke-width:0.469667"
   d="M 630.99499,2352.6839 C 495.25998,2334.9578 363.85408,2277.3659 260.95854,2190.5063 -21.114424,1952.3934 -78.624439,1550.5755 125.69362,1245.4212 229.33586,1090.6288 383.19906,985.67475 566.51746,944.72389 c 41.68397,-9.31164 90.591,-15.49057 122.60976,-15.49057 h 26.09248 v 74.17878 74.1789 l -39.35089,1.5743 c -67.5472,2.7023 -134.17052,20.1217 -202.8985,53.0499 -168.85945,80.9021 -283.00766,233.8704 -314.24077,421.1094 -10.05418,60.2737 -8.22927,142.7763 4.55061,205.7293 16.31293,80.3565 60.02298,173.5052 110.14459,234.7246 20.26115,24.7473 70.30024,74.7527 95.23097,95.1669 72.18666,59.109 189.294,106.977 284.69942,116.3718 41.00241,4.0376 131.16033,1.6336 165.41955,-4.4107 178.08324,-31.4195 331.31722,-148.6782 411.41462,-314.8252 31.8018,-65.9667 46.0885,-123.1839 55.3338,-221.6077 l 1.8806,-20.0206 h 72.8986 72.8986 l -0.024,7.594 c -0.013,4.1768 -1.2468,24.5484 -2.7411,45.2704 -14.6607,203.3049 -118.5429,392.1506 -284.4783,517.1479 -101.0473,76.1179 -220.74284,123.2811 -350.65499,138.1674 -44.6677,5.1184 -125.31325,5.1435 -164.30722,0.051 z"
   id="path9"
   transform="matrix(10.416663,0,0,10.416663,4406.2405,3333.05)" /></g>
</svg>
