<?xml version="1.0" encoding="UTF-8" standalone="no"?>
<!-- Creator: CorelDRAW 2020 (64-Bit) -->

<svg
   xml:space="preserve"
   width="22.427099in"
   height="24.594307in"
   version="1.1"
   style="clip-rule:evenodd;fill-rule:evenodd;image-rendering:optimizeQuality;shape-rendering:geometricPrecision;text-rendering:geometricPrecision"
   viewBox="0 0 22427.092 24594.299"
   id="svg2"
   sodipodi:docname="accessibility.svg"
   xmlns:inkscape="http://www.inkscape.org/namespaces/inkscape"
   xmlns:sodipodi="http://sodipodi.sourceforge.net/DTD/sodipodi-0.dtd"
   xmlns="http://www.w3.org/2000/svg"
   xmlns:svg="http://www.w3.org/2000/svg"><sodipodi:namedview
   id="namedview2"
   pagecolor="#ffffff"
   bordercolor="#000000"
   borderopacity="0.25"
   inkscape:showpageshadow="2"
   inkscape:pageopacity="0.0"
   inkscape:pagecheckerboard="0"
   inkscape:deskcolor="#d1d1d1"
   inkscape:document-units="in"><inkscape:page
     x="-2.4799739e-11"
     y="0"
     width="22427.09"
     height="24594.299"
     id="page2"
     margin="0"
     bleed="0" /></sodipodi:namedview>
 <defs
   id="defs1"><style
     type="text/css"
     id="style1">
   <![CDATA[
    .fil0 {fill:#373F47}
   ]]>
  </style></defs>
 <g
   id="Layer_x0020_1"
   inkscape:label="Layer 1"
   inkscape:groupmode="layer"
   transform="translate(-4406.2405,-3333.05)">
  <metadata
   id="CorelCorpID_0Corel-Layer" />
  
 <path
   style="fill:#e0e7c8;fill-opacity:1;stroke-width:0.596767"
   d="m 1975.4386,2163.1579 v -266.6667 h -239.9097 c -212.0586,0 -241.6921,0.6572 -255.2632,5.6608 -23.1107,8.5208 -80.3263,10.301 -109.654,3.4117 -71.7257,-16.849 -133.6757,-72.4262 -159.4905,-143.0837 l -9.3668,-25.6379 -0.9572,-358.7573 c -1.0737,-402.41985 -2.2317,-382.00787 24.609,-433.78886 20.7941,-40.11606 54.6887,-73.57886 94.0958,-92.89717 42.0724,-20.6249 67.7853,-26.3402 108.5658,-24.13135 58.1944,3.15206 104.5029,23.72503 145.1513,64.48477 35.8925,35.99096 58.7465,82.55571 63.8339,130.06091 l 2.361,22.0465 h 176.1592 c 202.9684,0 198.3172,-0.6024 228.5153,29.5958 19.9482,19.9482 29.5957,42.3264 29.5957,68.6499 0,26.3235 -9.6475,48.7016 -29.5957,68.6499 -30.2044,30.2043 -25.4966,29.5957 -228.9241,29.5957 h -176.5679 v 200 200 l 228.9474,0.027 c 140.5181,0.016 237.5692,1.4255 251.2698,3.6486 43.2367,7.0158 80.1117,34.3821 98.133,72.8284 l 9.3691,19.9877 0.9438,346.4912 0.9438,346.4913 H 2101.821 1975.4386 Z"
   id="path3"
   transform="scale(10.416663)" /><path
   style="fill:#e0e7c8;fill-opacity:1;stroke-width:0.596767"
   d="m 1364.9123,754.32568 c -77.7673,-21.25677 -141.4178,-86.36372 -159.4492,-163.09761 -23.5083,-100.04078 28.8915,-206.36871 122.9191,-249.42367 50.7778,-23.25097 107.3024,-25.84676 160.8575,-7.3871 35.5544,12.25509 62.1675,29.68311 88.7971,58.15025 25.341,27.08949 36.5632,45.88351 48.3319,80.9418 18.7257,55.78297 14.5028,111.95703 -12.4409,165.48995 -25.7644,51.19 -70.141,90.39007 -123.836,109.39066 -31.9294,11.29857 -94.675,14.27379 -125.1795,5.93572 z"
   id="path4"
   transform="scale(10.416663)" /><path
   style="fill:#e0e7c8;fill-opacity:1;stroke-width:0.596767"
   d="m 1803.5088,1477.193 v -71.9298 l 214.9123,-0.052 214.9122,-0.052 108.5293,-188.5445 c 59.691,-103.6994 108.8645,-189.0337 109.2744,-189.6317 0.4098,-0.598 27.7091,14.402 60.665,33.3333 43.8089,25.1658 59.4178,35.8358 58.0525,39.6838 -1.027,2.8947 -58.6118,103.5143 -127.9661,223.599 -69.3544,120.0846 -126.0989,219.9531 -126.0989,221.9298 0,2.42 -83.6692,3.594 -256.1404,3.594 h -256.1403 z"
   id="path5"
   transform="scale(10.416663)" /><path
   style="fill:#e0e7c8;fill-opacity:1;stroke-width:0.596767"
   d="M 1063.1579,2675.0782 C 753.86925,2640.3049 499.24291,2406.4668 438.86545,2101.7544 370.15523,1754.9882 567.12072,1407.712 900,1288.7131 c 69.84933,-24.97 154.6899,-41.3447 214.2148,-41.3447 h 26.1361 v 75.4386 75.4386 h -27.7215 c -37.8856,0 -99.7301,11.1005 -146.03852,26.2125 -225.92755,73.7277 -380.03718,276.7962 -390.1111,514.0449 -5.2654,124.0044 26.32156,235.9768 96.53298,342.1988 30.94303,46.8133 102.13391,118.4505 147.8918,148.8189 67.10979,44.5392 144.06635,76.1885 219.44634,90.2498 52.9081,9.8695 161.8864,8.9419 212.2807,-1.8069 194.4023,-41.4649 344.0811,-168.1195 417.7019,-353.4492 19.7819,-49.7982 28.6885,-93.6088 37.1901,-182.9355 l 1.7533,-18.421 h 73.4317 73.4318 v 30.2514 c 0,57.3765 -16.8976,145.4899 -40.2909,210.0995 -76.9104,212.418 -249.4389,377.4324 -463.7935,443.5939 -89.3741,27.5858 -198.4332,38.1465 -288.8981,27.9755 z"
   id="path6"
   transform="scale(10.416663)" /></g>
</svg>
