<?xml version="1.0" encoding="UTF-8" standalone="no"?>
<svg
   viewBox="0 0 31.921673 31.932353"
   version="1.1"
   id="svg1"
   sodipodi:docname="arrow-right.svg"
   inkscape:version="1.4 (86a8ad7, 2024-10-11)"
   width="31.921673"
   height="31.932354"
   xmlns:inkscape="http://www.inkscape.org/namespaces/inkscape"
   xmlns:sodipodi="http://sodipodi.sourceforge.net/DTD/sodipodi-0.dtd"
   xmlns="http://www.w3.org/2000/svg"
   xmlns:svg="http://www.w3.org/2000/svg">
  <defs
     id="defs1" />
  <sodipodi:namedview
     id="namedview1"
     pagecolor="#ffffff"
     bordercolor="#000000"
     borderopacity="0.25"
     inkscape:showpageshadow="2"
     inkscape:pageopacity="0.0"
     inkscape:pagecheckerboard="0"
     inkscape:deskcolor="#d1d1d1"
     inkscape:zoom="26.71875"
     inkscape:cx="16.018713"
     inkscape:cy="16"
     inkscape:window-width="2560"
     inkscape:window-height="1057"
     inkscape:window-x="-8"
     inkscape:window-y="892"
     inkscape:window-maximized="1"
     inkscape:current-layer="svg1">
    <inkscape:page
       x="0"
       y="-7.475797e-17"
       width="31.921673"
       height="31.932352"
       id="page1"
       margin="0"
       bleed="0" />
  </sodipodi:namedview>
  <path
     style="display:inline;fill:#506266;fill-opacity:1;stroke-width:0.00636552"
     d="m 0.70904124,31.910849 c -0.276135,-0.08977 -0.55402,-0.337735 -0.658365,-0.587469 -0.06695,-0.160231 -0.06771,-0.543192 -0.0014,-0.701904 0.02811,-0.06727 2.22600306,-3.384593 4.88421006,-7.371824 2.658208,-3.98723 4.833105,-7.266418 4.833105,-7.287083 0,-0.02066 -2.174897,-3.299853 -4.833105,-7.2870832 C 2.2752793,4.6882552 0.07738424,1.3709342 0.04927624,1.3036614 c -0.06631,-0.1587118 -0.06555,-0.54167252 0.0014,-0.70190402 0.07326,-0.1753354 0.30669,-0.4236842 0.487633,-0.5187975 0.11368,-0.059756 0.220921,-0.080407 0.423227,-0.0815 L 1.2325033,-1.1422475e-7 16.369647,7.5684228 c 11.856732,5.9282492 15.166994,7.5982722 15.274879,7.7061572 0.196202,0.196202 0.277148,0.397143 0.277148,0.687993 0,0.29085 -0.08095,0.491791 -0.277148,0.687993 -0.107883,0.107883 -3.417105,1.777413 -15.269074,7.703376 -14.4214427,7.210695 -15.1416917,7.566153 -15.3519707,7.576526 -0.12134706,0.006 -0.26284506,-0.0028 -0.31444006,-0.01961 z M 16.334999,22.184817 c 6.823868,-3.411915 12.407033,-6.211927 12.407033,-6.222248 0,-0.02448 -24.8024577,-12.4257311 -24.8514207,-12.4257311 -0.02055,0 1.763428,2.7013299 3.964386,6.0029549 2.3184537,3.4778812 4.0186077,6.0637002 4.0418397,6.1473682 0.02205,0.07943 0.0401,0.203361 0.0401,0.275408 0,0.07205 -0.01805,0.19598 -0.0401,0.275408 -0.02323,0.08367 -1.723386,2.669487 -4.0418397,6.147368 -2.200958,3.301625 -3.984931,6.002955 -3.964386,6.002955 0.02055,0 5.620521,-2.791567 12.4443877,-6.203483 z"
     id="path2" />
</svg>
