<?xml version="1.0" encoding="UTF-8" standalone="no"?>
<svg
   width="0.58780152in"
   height="0.52908051in"
   viewBox="0 0 176.34053 158.72406"
   version="1.1"
   id="svg1"
   sodipodi:docname="card.svg"
   xmlns:inkscape="http://www.inkscape.org/namespaces/inkscape"
   xmlns:sodipodi="http://sodipodi.sourceforge.net/DTD/sodipodi-0.dtd"
   xmlns="http://www.w3.org/2000/svg"
   xmlns:svg="http://www.w3.org/2000/svg">
  <defs
     id="defs1" />
  <sodipodi:namedview
     id="namedview1"
     pagecolor="#ffffff"
     bordercolor="#000000"
     borderopacity="0.25"
     inkscape:showpageshadow="2"
     inkscape:pageopacity="0.0"
     inkscape:pagecheckerboard="0"
     inkscape:deskcolor="#d1d1d1"
     inkscape:document-units="in">
    <inkscape:page
       x="0"
       y="-5.8374461e-14"
       width="176.34053"
       height="158.72404"
       id="page2"
       margin="0"
       bleed="0" />
  </sodipodi:namedview>
  <path
     style="fill:#10454f;fill-opacity:1;stroke-width:0.0373975"
     d="m 57.597885,118.47769 c -2.841231,-0.47946 -5.8954,-1.71145 -8.439818,-3.40444 -4.001316,-2.66239 -6.9202,-6.87466 -8.895468,-12.83714 C 39.178533,98.963778 38.536702,96.036934 37.291762,88.68861 36.738568,85.423345 34.563665,73.895971 32.45864,63.072222 30.353622,52.248476 27.634622,38.148468 26.416422,31.738875 25.198222,25.329282 24.059263,19.590332 23.8854,18.985651 23.447707,17.463392 22.268882,15.579664 21.380219,14.982455 20.097419,14.120369 19.201476,13.991443 13.218679,13.808011 9.2025518,13.684877 6.9625552,13.522361 6.0105843,13.285049 3.3309961,12.617071 1.4666513,11.346488 0.5926798,9.592656 -1.0647053,6.2667175 0.89546321,1.9879689 4.7112269,0.60249552 5.9929603,0.13710869 6.483498,0.10317057 13.108738,0.02150933 c 7.961481,-0.09813124 10.177184,0.10974374 13.293968,1.24723027 2.687256,0.9807261 4.746,2.3718982 7.311587,4.9407151 2.467622,2.4707288 3.366584,2.9705538 6.157168,3.4234044 0.914313,0.1483718 21.333501,0.226825 60.310999,0.2317187 34.05359,0.00428 60.32095,0.094363 62.22693,0.2134162 5.44199,0.339921 8.61068,1.424153 10.88624,3.724946 1.35779,1.37284 2.25488,3.045089 2.74197,5.111258 0.8028,3.4053 0.14482,7.114831 -3.62033,20.410642 -2.0074,7.088683 -5.71998,20.902132 -7.15074,26.60586 -2.44731,9.756155 -4.89489,14.537139 -9.17468,17.921329 -3.09342,2.446081 -7.50478,4.284384 -11.33411,4.72315 -1.21753,0.1395 -18.60102,0.220406 -47.601269,0.221562 l -45.683323,0.0018 0.132437,0.934503 c 0.818659,5.776206 1.147172,7.13935 2.298053,9.53565 1.473434,3.067906 3.387818,4.433806 7.469437,5.329406 1.498259,0.32875 5.642006,0.36364 45.295925,0.38137 47.40968,0.0212 46.10052,-0.0116 48.06574,1.20299 3.41886,2.11297 3.63552,8.62606 0.36981,11.1169 -1.9517,1.48861 1.05705,1.40612 -50.23802,1.37743 -25.433094,-0.0144 -46.703992,-0.10381 -47.268658,-0.19913 z"
     id="path1" />
  <path
     style="fill:#10454f;fill-opacity:1;stroke-width:0.0373975"
     d="m 50.332398,158.39454 c -2.331728,-0.59184 -4.309306,-1.77165 -6.223381,-3.71281 -2.998031,-3.04045 -4.367878,-6.40363 -4.355134,-10.69251 0.01219,-4.05455 1.343769,-7.04385 4.429893,-9.94373 6.008281,-5.64568 15.542918,-5.13878 20.324589,1.08055 2.651112,3.4482 3.647187,7.33793 2.933206,11.45433 -0.966612,5.57293 -4.286003,9.70319 -9.173049,11.41388 -2.032365,0.71141 -5.934887,0.90825 -7.936124,0.40029 z"
     id="path2" />
  <path
     style="fill:#10454f;fill-opacity:1;stroke-width:0.0373975"
     d="m 140.31114,158.37484 c -4.86511,-1.27772 -8.7956,-5.38033 -10.12156,-10.56476 -0.52703,-2.06068 -0.57111,-5.16343 -0.0997,-7.01794 1.14132,-4.48992 4.61514,-8.20299 9.27325,-9.91193 1.56193,-0.57303 1.97668,-0.6302 4.57609,-0.63072 3.25393,-6.5e-4 5.09586,0.43522 7.03626,1.66504 6.66241,4.2226 8.65653,12.14906 4.88772,19.42833 -1.13568,2.19352 -3.5902,4.73751 -5.58828,5.79197 -2.79868,1.47696 -7.04794,2.00579 -9.96378,1.24001 z"
     id="path3" />
</svg>
