<?xml version="1.0" encoding="UTF-8" standalone="no"?>
<svg
   width="4.445694in"
   height="4.4442778in"
   viewBox="0 0 1333.7082 1333.2834"
   version="1.1"
   id="svg1"
   xmlns="http://www.w3.org/2000/svg"
   xmlns:svg="http://www.w3.org/2000/svg">
  <defs
     id="defs1" />
  <path
     style="fill:#db4f2c;fill-opacity:1;stroke-width:0.537091"
     d="m 111.1043,1332.1939 c -9.04331,-1.2942 -25.640654,-6.6576 -36.882979,-11.9185 C 7.4910495,1289.0486 -18.808933,1211.9522 14.242555,1144.4522 36.788387,1098.4077 106.50321,1022.8652 238.07299,901.91131 337.45431,810.54875 413.31691,736.02219 430.86772,712.512 455.45885,679.57106 456.91419,659.09409 436.83316,628.57778 421.72872,605.62422 348.3095,532.51744 244.38878,436.95241 108.18054,311.69588 42.239662,241.94741 18.796723,198.33409 -12.477426,140.15155 -3.6950805,78.144724 41.931571,34.992936 67.379874,10.924993 89.226696,1.6031958 123.54164,0.17082776 166.17226,-1.6086526 195.39091,10.281998 238.07299,46.779833 246.7572,54.20578 349.4111,155.60262 466.19275,272.10614 582.97444,388.60966 678.95547,483.32147 679.48403,482.57681 701.07456,452.15728 749.39553,398.92788 822.61456,324.90709 873.29644,273.67026 927.90331,216.82815 943.96316,198.59131 1054.3541,73.236577 1113.1522,22.652086 1166.1608,7.4327283 c 29.6091,-8.5010772 70.3244,-5.5342228 97.2829,7.0888347 75.2983,35.257767 92.3601,121.188117 40.0735,201.827527 -12.7817,19.71257 -54.5971,63.53374 -201.5234,211.1896 -112.4082,112.96644 -189.54433,192.93956 -195.93464,203.14097 -6.85716,10.94672 -11.05063,22.14412 -12.00235,32.04878 -3.01562,31.38431 14.50522,52.35472 168.22669,201.34756 175.0142,169.6306 239.3928,240.8808 260.5775,288.3911 6.5744,14.7442 7.6722,22.0963 7.7513,51.9137 0.087,32.61 -0.5251,36.0402 -9.9913,56.0234 -12.5014,26.3906 -35.9659,50.4511 -60.2245,61.754 -25.3794,11.8251 -64.3147,13.4848 -95.3318,4.0637 -47.1509,-14.3217 -106.2191,-64.2652 -205.60979,-173.8479 C 930.26269,1120.1883 852.27681,1039.1439 786.153,972.27553 L 665.92781,850.69656 655.6846,863.1425 c -40.39494,49.08159 -94.25119,105.28822 -233.31875,243.5013 -157.23416,156.268 -196.4377,193.0059 -221.85397,207.9008 -24.51389,14.3661 -61.42945,21.6533 -89.40758,17.6493 z"
     id="path1" />
</svg>
