<?xml version="1.0" encoding="UTF-8" standalone="no"?>
<svg
   width="0.29246837in"
   height="0.46225005in"
   viewBox="0 0 87.740507 138.67492"
   version="1.1"
   id="svg1"
   sodipodi:docname="interog.svg"
   xmlns:inkscape="http://www.inkscape.org/namespaces/inkscape"
   xmlns:sodipodi="http://sodipodi.sourceforge.net/DTD/sodipodi-0.dtd"
   xmlns="http://www.w3.org/2000/svg"
   xmlns:svg="http://www.w3.org/2000/svg">
  <defs
     id="defs1" />
  <sodipodi:namedview
     id="namedview1"
     pagecolor="#ffffff"
     bordercolor="#000000"
     borderopacity="0.25"
     inkscape:showpageshadow="2"
     inkscape:pageopacity="0.0"
     inkscape:pagecheckerboard="0"
     inkscape:deskcolor="#d1d1d1"
     inkscape:document-units="in"
     showgrid="false">
    <inkscape:page
       x="-8.4671917e-16"
       y="7.2514316e-16"
       width="87.740501"
       height="138.67491"
       id="page2"
       margin="0"
       bleed="0" />
  </sodipodi:namedview>
  <path
     style="fill:#10454f;fill-opacity:1;stroke-width:0.0278491"
     d="m 41.771993,98.41085 c -5.011892,-1.126774 -7.326476,-5.478829 -6.747085,-12.68636 0.512315,-6.373095 2.54308,-10.872187 6.876738,-15.23517 2.723371,-2.741799 4.040142,-3.724817 11.802139,-8.810724 4.995664,-3.273321 7.220107,-4.955655 9.346103,-7.06841 2.121415,-2.108206 3.163577,-3.494089 4.311114,-5.732976 1.595921,-3.113711 2.272136,-5.992988 2.268905,-9.660824 -0.0067,-7.646938 -4.199861,-13.843259 -11.914427,-17.606341 -11.174323,-5.450716 -25.641934,-3.64126 -33.476728,4.186915 -2.963989,2.961484 -4.381837,5.876197 -5.758398,11.837704 -1.557428,6.744791 -2.610783,8.689494 -5.426227,10.017884 -1.197743,0.565122 -3.4317185,1.060918 -4.7803298,1.060918 -5.3568455,0 -8.28252797,-4.168867 -8.273777669536,-11.789476 C 0.01018631,28.069763 3.9586804,18.403253 10.220994,11.901497 15.494588,6.4262657 21.812155,2.9664273 31.107284,0.46304483 L 32.826584,-2.1813948e-8 40.195009,0.01986872 c 10.493105,0.02829374 14.23011,0.30646613 18.830415,1.40168328 10.019243,2.3853322 17.723787,7.7651098 22.888122,15.98187 1.957184,3.113988 3.820627,7.531361 4.789601,11.353952 0.791975,3.124321 0.929497,4.494645 1.015137,10.115309 0.128344,8.423237 -0.255656,11.07907 -2.335914,16.156209 -2.121843,5.178617 -4.808905,9.499309 -7.911803,12.721883 -2.544728,2.64287 -3.754749,3.527261 -13.465486,9.841749 -3.22748,2.098699 -6.786872,4.791498 -7.5407,5.704795 -1.466093,1.77624 -2.343721,3.519423 -3.934327,7.814537 -1.569727,4.238746 -2.769414,5.956939 -4.842032,6.934776 -1.020187,0.481312 -1.254794,0.52529 -2.99009,0.560487 -1.177384,0.02375 -2.273861,-0.04966 -2.925939,-0.196281 z"
     id="path1" />
  <path
     style="fill:#10454f;fill-opacity:1;stroke-width:0.0278491"
     d="m 42.431936,138.59588 c -4.686492,-0.6083 -8.755025,-4.39164 -9.935099,-9.23867 -0.349759,-1.43661 -0.352659,-3.9168 -0.0063,-5.24021 0.8742,-3.33856 3.366127,-6.22415 6.904504,-7.99525 2.653967,-1.32842 6.849194,-1.20116 9.969386,0.30244 7.155644,3.4482 8.30681,14.34148 2.064534,19.53636 -2.347159,1.95332 -6.002617,3.02403 -8.9972,2.63534 z"
     id="path2" />
</svg>
