<?xml version="1.0" encoding="UTF-8" standalone="no"?>
<svg
   width="27.981609mm"
   height="37.243362mm"
   viewBox="0 0 79.327944 105.58504"
   version="1.1"
   id="svg1"
   xmlns="http://www.w3.org/2000/svg"
   xmlns:svg="http://www.w3.org/2000/svg">
  <defs
     id="defs1" />
  <path
     style="fill:#bde038;fill-opacity:1;stroke-width:0.0214836"
     d="m 34.335137,67.51394 c -1.642806,-0.39907 -3.264119,-1.531418 -3.980139,-2.779787 -0.497251,-0.866946 -0.467067,-0.9489 0.145612,-0.39538 2.486915,2.246779 4.812366,2.461668 8.234855,0.76096 1.255693,-0.623981 3.985505,-2.200712 4.082874,-2.358256 0.03528,-0.05708 -0.152377,-0.104548 -0.417003,-0.105491 -0.264627,-9.76e-4 -1.565504,-0.0565 -2.890837,-0.12345 -2.696376,-0.136215 -4.604598,-0.372991 -6.115982,-0.758881 -1.145768,-0.292542 -3.199627,-1.011699 -3.119154,-1.092172 0.02901,-0.02901 0.813601,0.169147 1.743528,0.440355 2.661543,0.77622 3.907837,0.967495 6.301306,0.967093 2.367967,-3.98e-4 3.108823,-0.143898 4.673683,-0.905263 1.149504,-0.559277 2.517678,-1.876521 3.520164,-3.389124 0.896733,-1.353037 2.389503,-4.43549 3.089195,-6.378947 0.733041,-2.036085 1.287246,-3.892869 1.190734,-3.989383 -0.07935,-0.07935 -13.655543,4.547232 -22.768514,7.759197 l -5.305263,1.869898 -0.568421,-0.246641 c -0.312631,-0.135652 -1.591579,-0.581721 -2.842105,-0.991263 -3.058767,-1.001732 -4.610887,-1.768296 -5.7432,-2.836462 -1.45541,-1.372961 -1.994264,-2.793213 -1.85886,-4.899378 0.03972,-0.617928 0.121614,-1.17289 0.181972,-1.233247 0.06211,-0.06212 0.208055,0.206213 0.336262,0.618242 0.799531,2.569515 2.51856,4.592822 4.810142,5.661565 4.441997,2.071653 11.546198,0.914403 20.002967,-3.258412 l 2.318756,-1.144142 -0.07206,-0.444085 c -0.03964,-0.244247 -0.121686,-0.493704 -0.182331,-0.554348 -0.0628,-0.0628 -2.663223,0.116303 -6.041946,0.41615 L 27.129686,48.6497 26.38373,48.285806 C 25.973454,48.085664 24.782371,47.311028 23.736879,46.564391 21.676053,45.092652 20.764702,44.587799 16.835895,42.741506 11.262763,40.122486 8.8409785,38.385375 7.287115,35.892304 6.3784602,34.434427 5.9587793,33.060323 5.8880042,31.311386 c -0.066406,-1.640879 0.1117446,-2.5708 0.7253646,-3.786375 0.3576743,-0.708548 1.495756,-2.214171 1.597078,-2.112849 0.029246,0.02925 -0.123152,0.493523 -0.3386602,1.03173 -0.8349624,2.085221 -0.9141101,3.546455 -0.2863553,5.286739 1.140659,3.162171 4.6308017,6.44046 9.4756597,8.900481 3.270729,1.660743 5.206729,2.114339 7.711818,1.806846 0.746797,-0.09167 1.926235,-0.193566 2.620972,-0.226442 l 1.263157,-0.05978 0.947369,0.494716 c 0.521053,0.272094 1.828825,0.956288 2.906162,1.520432 3.33119,1.744365 5.76152,2.38914 8.525417,2.26182 1.897722,-0.08742 2.942221,-0.371644 4.931421,-1.341914 3.080054,-1.502353 5.629205,-3.832627 6.811849,-6.226961 0.604663,-1.224179 0.822153,-2.101614 0.822153,-3.316868 0,-2.336785 -0.952859,-4.074583 -4.202757,-7.664874 -3.531778,-3.901694 -12.179289,-10.774118 -17.43583,-13.856753 -3.891732,-2.28226 -6.467687,-2.967776 -8.655213,-2.303336 -1.846818,0.560955 -4.600623,2.86844 -7.281963,6.101748 -0.555686,0.670079 -1.03136,1.197303 -1.057053,1.171611 -0.06684,-0.06684 0.797524,-1.619242 1.439445,-2.585238 0.773817,-1.164483 2.049363,-2.645991 4.381968,-5.08953 1.113649,-1.16661 2.002463,-2.1434603 1.975145,-2.170778 -0.02732,-0.027318 -1.632811,0.4040309 -3.567762,0.958553 -1.93495,0.554523 -3.543184,0.983132 -3.573851,0.952465 -0.10939,-0.10939 0.735379,-0.951501 1.350416,-1.3461698 0.854683,-0.5484481 1.471634,-0.7126116 3.773464,-1.0040728 2.943983,-0.3727715 3.961385,-0.6698337 10.125398,-2.9564218 4.727654,-1.7537602 6.909624,-2.2386449 9.954669,-2.2121608 2.026289,0.017624 1.824291,0.078704 -1.180973,0.3571041 -3.176179,0.2942333 -6.422795,1.1721049 -9.530162,2.5769169 -1.665734,0.7530619 -5.185628,2.6075971 -5.185628,2.7321645 0,0.041893 0.895264,0.4686793 1.989475,0.9484067 4.405073,1.931288 8.719829,4.311761 11.715789,6.46366 1.791673,1.286901 3.332911,2.539737 6.505263,5.287976 3.442216,2.982026 5.068286,4.315169 7.482321,6.13442 l 2.165572,1.632006 0.355,-0.340112 c 0.195251,-0.187062 0.355002,-0.38901 0.355002,-0.448773 0,-0.05976 -0.506586,-0.756746 -1.125746,-1.548852 -1.429984,-1.829413 -1.946949,-2.851272 -2.010378,-3.973821 -0.06431,-1.138176 0.08865,-1.602408 1.093515,-3.318785 1.247828,-2.131369 1.459025,-2.927616 1.378986,-5.198996 C 54.784181,13.38421 54.700765,12.786662 54.378676,11.568507 53.434087,7.9960254 51.535264,4.4174232 49.452565,2.2845489 48.819887,1.6366298 48.276757,1.2408023 47.285307,0.70507563 c -1.396306,-0.75448886 -1.377964,-0.86044902 0.09021,-0.52114556 2.017312,0.46621231 3.32454,1.17052273 4.65371,2.50733313 0.785222,0.7897348 1.144606,1.2768715 1.591295,2.1569651 0.995805,1.9619907 1.352646,3.1705339 2.499725,8.4660097 0.585024,2.700765 0.968366,4.122804 1.61743,6 l 0.850681,2.460306 0.0025,1.578948 c 0.0024,1.548407 -0.0068,1.600935 -0.478859,2.715789 -1.171544,2.767032 -1.349717,3.718626 -1.11603,5.960504 0.145404,1.394919 0.586018,3.712884 0.771861,4.060571 0.06178,0.11558 0.745979,-0.538525 2.180109,-2.08421 6.012654,-6.480359 6.711951,-7.80757 6.263144,-11.886972 -0.11492,-1.044556 -0.156985,-1.998466 -0.101507,-2.301855 0.207819,-1.136471 1.18745,-1.97861 3.231127,-2.77765 0.713528,-0.278976 1.358894,-0.50723 1.434136,-0.50723 0.07525,0 -0.208136,-0.688125 -0.629734,-1.529164 -0.421606,-0.841041 -0.740621,-1.555087 -0.708937,-1.586773 0.07276,-0.07278 1.350358,1.854178 1.729268,2.608251 0.962889,1.916231 1.256371,4.063824 0.772882,5.655619 -0.245896,0.809548 -0.510432,1.188615 -3.336698,4.781449 -6.639565,8.440392 -8.983355,11.370302 -9.386478,11.733776 -0.735278,0.66296 -6.400138,7.568436 -6.249819,7.618541 0.196928,0.06564 8.634425,-1.129401 8.762325,-1.241052 0.05619,-0.04905 -0.44016,-1.443488 -1.102998,-3.098755 -0.662838,-1.655268 -1.191968,-3.02201 -1.175846,-3.037204 0.01613,-0.0152 0.512474,0.398359 1.103,0.91901 1.287894,1.135499 2.678387,2.199278 3.284211,2.512541 0.600445,0.310482 2.112487,0.316715 2.992024,0.01233 1.980247,-0.685298 4.438915,-2.99075 6.691936,-6.274891 l 0.823236,-1.2 -0.08354,0.568421 c -0.32101,2.184198 -1.113185,3.910178 -2.443898,5.324729 -1.192935,1.268094 -2.637122,2.229078 -5.327129,3.544739 -1.146315,0.560655 -2.104518,1.036271 -2.12934,1.056925 -0.02482,0.02065 0.135614,0.367769 0.356522,0.771369 1.099866,2.009454 2.049232,4.748076 2.483963,7.165459 0.302926,1.684491 0.27518,4.403591 -0.05768,5.650983 -0.822446,3.082182 -2.720711,4.361619 -5.884693,3.966305 -0.765723,-0.09567 -0.907651,-0.246097 -0.358243,-0.379696 0.69812,-0.169761 2.386477,-1.071369 2.972942,-1.587596 2.201555,-1.937885 2.465969,-4.909757 0.830234,-9.331342 -0.221198,-0.597925 -0.445415,-1.13678 -0.498257,-1.197454 -0.05284,-0.06068 -0.27796,0.251957 -0.50026,0.694737 -0.569143,1.133635 -1.025538,1.899964 -1.091977,1.833526 -0.03114,-0.03114 0.06803,-0.300976 0.220399,-0.59963 0.77557,-1.520242 1.082588,-3.361543 0.870998,-5.223683 -0.07058,-0.621178 -0.141979,-1.143061 -0.158659,-1.15974 -0.05214,-0.05214 -4.095853,0.8166 -5.330113,1.145113 -4.042146,1.075859 -6.117758,2.631341 -7.714251,5.781125 -0.744225,1.468307 -3.286795,8.172708 -3.191758,8.416213 0.05815,0.149004 3.917179,-0.975816 5.833632,-1.700373 3.371567,-1.274694 5.974106,-2.808517 7.656977,-4.512692 0.518107,-0.524667 0.966445,-0.929508 0.996304,-0.899648 0.106887,0.106888 -1.418711,1.849093 -2.176398,2.485404 -1.84186,1.546807 -3.315165,2.325337 -7.719813,4.079328 -3.208669,1.277737 -5.357849,2.322194 -6.882774,3.344887 -0.591316,0.396568 -1.72768,1.161407 -2.525252,1.699645 -1.718914,1.16 -3.168536,1.885472 -4.297237,2.150577 -0.972534,0.228425 -2.958741,0.238817 -3.858745,0.02018 z"
     id="path1" />
  <path
     style="fill:#bde038;fill-opacity:1;stroke-width:0.0214836"
     d="m 26.22546,97.664885 -0.536843,-0.05221 v -0.940101 -0.940108 h 2.97231 2.972308 l -0.03546,-1.542187 -0.03547,-1.542194 -1.010526,-0.155683 c -2.599519,-0.400475 -4.307516,-1.233185 -4.8568,-2.367853 -0.317999,-0.656895 -0.32527,-1.244707 -0.0236,-1.907873 0.415104,-0.912535 0.477184,-0.91054 1.675508,0.05386 0.591451,0.47598 1.895561,1.405572 2.898023,2.065768 2.560189,1.686062 3.075681,2.122145 3.45406,2.92197 0.851383,1.799672 0.357288,3.002854 -1.529683,3.724955 -1.248815,0.4779 -4.365138,0.835313 -5.943822,0.681708 z"
     id="path2" />
  <path
     style="fill:#bde038;fill-opacity:1;stroke-width:0.0214836"
     d="m 28.427992,87.661302 -2.123784,-0.33296 0.292204,-0.267911 c 0.727986,-0.667442 2.300749,-1.180626 3.618323,-1.180626 0.753509,0 3.268754,0.308776 3.674761,0.451122 0.239344,0.08391 -0.765522,1.122839 -1.406373,1.454043 -0.616043,0.318377 -1.385175,0.294922 -4.055131,-0.123668 z"
     id="path3" />
  <path
     style="fill:#bde038;fill-opacity:1;stroke-width:0.0214836"
     d="m 37.689208,97.469283 c 3.25e-4,-0.08685 0.199006,-3.881057 0.441515,-8.43158 0.242508,-4.550524 0.44119,-8.515261 0.441514,-8.810528 l 5.91e-4,-0.536843 h 0.502856 c 0.418071,0 0.513783,0.04793 0.567658,0.284211 0.07209,0.316195 0.950539,5.588707 0.950539,5.705219 0,0.04058 0.376389,0.07373 0.83642,0.07373 1.947751,0 4.603434,0.613885 5.728709,1.32424 0.623991,0.393912 1.375903,1.258163 1.666842,1.915876 0.49208,1.112428 0.624747,2.145645 0.699034,5.444096 l 0.07183,3.189477 H 48.643928 47.69114 l -0.07639,-1.23158 c -0.223066,-3.596373 -0.599834,-4.785033 -1.997214,-6.301012 -0.757009,-0.821256 -3.790608,-2.963616 -3.958613,-2.795609 -0.05086,0.05086 -1.06245,9.716754 -1.064374,10.170306 -4.98e-4,0.11712 -0.375765,0.157895 -1.453302,0.157895 -1.07821,0 -1.45248,-0.04073 -1.452041,-0.157895 z"
     id="path4" />
  <path
     style="fill:#bde038;fill-opacity:1;stroke-width:0.0214836"
     d="m 67.62546,95.681072 v -9.904 l 1.180476,-0.0885 c 1.416028,-0.106168 4.648628,0.110774 5.703734,0.382781 2.009788,0.518128 3.369229,1.529608 4.148022,3.086324 1.13007,2.258879 0.813125,4.793464 -0.81464,6.514586 -1.367535,1.445964 -3.011532,2.00813 -5.660685,1.935678 l -1.60605,-0.04396 -0.491642,4.010519 -0.491635,4.01054 H 68.609246 67.62546 Z m 6.331285,-0.708727 c 0.582426,-0.16178 1.563632,-1.021261 1.884958,-1.651115 1.209579,-2.370974 -0.153695,-4.5219 -3.084322,-4.866343 l -0.673389,-0.07914 -0.752983,0.741506 c -1.001308,0.986044 -1.37013,1.753144 -1.358616,2.825719 0.0108,1.004354 0.323546,1.674083 1.086947,2.32752 0.829184,0.709755 1.918772,0.973691 2.897405,0.701856 z"
     id="path5" />
  <path
     style="fill:#bde038;fill-opacity:1;stroke-width:0.0214836"
     d="m 13.688617,90.616652 v -0.94737 h 4.421053 4.421053 v 0.94737 0.947369 H 18.10967 13.688617 Z"
     id="path6" />
  <path
     style="fill:#10454f;fill-opacity:1;stroke-width:0.0214836"
     d="m 4.3381972,97.839349 c -0.9084283,-0.373764 -1.7045688,-0.928294 -2.3714411,-1.65176 -2.40912725,-2.6136 -2.62889001,-6.08689 -0.5272797,-8.333513 1.2778235,-1.365997 2.6670241,-1.915846 4.5937071,-1.818199 1.5285388,0.07747 2.3851918,0.413685 3.3647417,1.320579 0.9708198,0.898808 1.5609348,2.070156 1.8258008,3.624111 0.237823,1.395296 0.240617,1.72029 0.01479,1.72029 -0.09703,0 -1.9502721,0.198947 -4.1183191,0.442105 -2.1680469,0.243159 -3.9928693,0.442106 -4.0551617,0.442106 -0.062295,0 -0.113259,0.25579 -0.113259,0.568422 0,0.312632 0.020628,0.568421 0.045838,0.568421 0.025211,0 1.4256364,0.198948 3.1120551,0.442106 1.6864195,0.243158 3.0883041,0.442106 3.1153,0.442106 0.1087,0 -0.3940096,0.853405 -0.7928326,1.345924 -0.9241382,1.141239 -2.5960276,1.503595 -4.0939395,0.887302 z M 5.8570388,90.191618 8.193881,89.715511 8.153053,89.219991 C 8.130595,88.947459 8.085559,88.697797 8.0529589,88.665206 c -0.054232,-0.05423 -4.9808121,0.867432 -5.0821468,0.950767 -0.024266,0.01995 -0.00503,0.267484 0.04268,0.550059 0.061485,0.363916 0.1480402,0.512015 0.2967517,0.507732 0.1154725,-0.003 1.2615284,-0.220288 2.5467921,-0.482146 z"
     id="path7" />
  <path
     style="fill:#10454f;fill-opacity:1;stroke-width:0.0214836"
     d="m 57.735829,97.616961 c -1.125612,-0.166701 -2.307324,-0.792482 -3.184054,-1.68613 -2.111756,-2.152501 -2.263574,-5.092256 -0.39713,-7.689886 0.920243,-1.280749 1.272291,-1.547528 2.544499,-1.928186 1.508277,-0.451294 3.087291,-0.48174 4.105263,-0.07917 1.42313,0.562811 2.572567,1.754366 3.179552,3.296073 0.408797,1.038318 0.408592,3.029294 -4.34e-4,4.213469 -0.905095,2.620357 -3.566998,4.270843 -6.247696,3.873825 z m 2.305354,-3.189214 c 1.109465,-0.519366 1.776111,-1.478864 1.770272,-2.547936 -0.005,-0.915753 -1.050365,-2.291126 -2.204113,-2.899941 -0.454813,-0.239992 -0.493331,-0.240832 -1.303444,-0.02835 -1.668446,0.437597 -2.672859,1.402684 -2.777881,2.669106 -0.07113,0.857741 0.139343,1.489118 0.705195,2.115454 0.997003,1.103562 2.389902,1.356434 3.809971,0.69167 z"
     id="path8" />
</svg>
