<?xml version="1.0" encoding="UTF-8" standalone="no"?>
<svg
   width="0.42972255in"
   height="0.4285942in"
   viewBox="0 0 128.91667 128.57836"
   version="1.1"
   id="svg1"
   sodipodi:docname="plus.svg"
   xmlns:inkscape="http://www.inkscape.org/namespaces/inkscape"
   xmlns:sodipodi="http://sodipodi.sourceforge.net/DTD/sodipodi-0.dtd"
   xmlns="http://www.w3.org/2000/svg"
   xmlns:svg="http://www.w3.org/2000/svg">
  <defs
     id="defs1" />
  <sodipodi:namedview
     id="namedview1"
     pagecolor="#ffffff"
     bordercolor="#000000"
     borderopacity="0.25"
     inkscape:showpageshadow="2"
     inkscape:pageopacity="0.0"
     inkscape:pagecheckerboard="0"
     inkscape:deskcolor="#d1d1d1"
     inkscape:document-units="in"
     showgrid="false">
    <inkscape:page
       x="4.3893618e-16"
       y="-2.8531238e-15"
       width="128.91667"
       height="128.57835"
       id="page2"
       margin="0"
       bleed="0" />
  </sodipodi:namedview>
  <path
     style="fill:#10454f;fill-opacity:1;stroke-width:0.0258599"
     d="m 62.565528,128.36641 c -2.297393,-0.49841 -3.642303,-1.23245 -5.022739,-2.74135 -0.913247,-0.99824 -1.813588,-2.75008 -2.215292,-4.31041 -0.666528,-2.58899 -0.679491,-3.08078 -0.682613,-25.892329 l -0.003,-21.699417 -22.312867,-0.05353 C 12.032581,73.62067 9.8993904,73.592376 8.7237857,73.356282 3.6200062,72.3313 1.0717329,70.347974 0.19489165,66.718227 c -0.25999052,-1.076248 -0.25999052,-3.789246 0,-4.865494 C 0.9106717,58.889712 3.0320207,56.800182 6.3583055,55.781772 9.1801242,54.917815 8.2624591,54.94899 32.405073,54.896902 l 22.236842,-0.04797 V 33.581155 c 0,-18.603275 0.03031,-21.502439 0.243001,-23.140842 0.769816,-5.9334742 3.013824,-9.2547417 6.934599,-10.26361357 1.160266,-0.29855305 3.947368,-0.20545329 5.355676,0.17889951 3.13194,0.85476496 5.286776,3.03071366 6.309601,6.37142026 0.862348,2.8165631 0.831701,1.9170221 0.884832,25.9707448 l 0.04897,22.16082 21.395288,0.0047 c 22.392818,0.005 23.344588,0.02969 25.880668,0.672676 3.73832,0.947775 5.88557,2.678096 6.87488,5.539995 0.29959,0.866675 0.34734,1.307894 0.34734,3.209486 0,1.901596 -0.0478,2.342815 -0.34734,3.20949 -0.94551,2.735181 -3.17138,4.601704 -6.49476,5.446242 -2.71398,0.689679 -1.92449,0.667135 -25.424465,0.726016 l -22.231483,0.05572 -0.05309,21.851451 c -0.05241,21.57004 -0.05728,21.87298 -0.377409,23.52396 -0.436679,2.25199 -0.857823,3.56712 -1.603652,5.00781 -1.17156,2.26306 -2.962214,3.74838 -5.13691,4.261 -1.196116,0.28193 -3.380696,0.28159 -4.682119,-7.5e-4 z"
     id="path1" />
</svg>
