<?xml version="1.0" encoding="UTF-8" standalone="no"?>
<svg
   width="2.1370692in"
   height="2.0533302in"
   viewBox="0 0 641.12174 615.99907"
   version="1.1"
   id="svg1"
   sodipodi:docname="user.svg"
   xmlns:inkscape="http://www.inkscape.org/namespaces/inkscape"
   xmlns:sodipodi="http://sodipodi.sourceforge.net/DTD/sodipodi-0.dtd"
   xmlns="http://www.w3.org/2000/svg"
   xmlns:svg="http://www.w3.org/2000/svg">
  <defs
     id="defs1" />
  <sodipodi:namedview
     id="namedview1"
     pagecolor="#ffffff"
     bordercolor="#000000"
     borderopacity="0.25"
     inkscape:showpageshadow="2"
     inkscape:pageopacity="0.0"
     inkscape:pagecheckerboard="0"
     inkscape:deskcolor="#d1d1d1"
     inkscape:document-units="in">
    <inkscape:page
       x="1.4671588e-15"
       y="0"
       width="641.1217"
       height="615.99908"
       id="page2"
       margin="0"
       bleed="0" />
  </sodipodi:namedview>
  <path
     style="fill:#bde038;fill-opacity:1;stroke-width:0.122337"
     d="M 3.2496838,613.37062 C 3.0279841,612.7929 2.4650663,606.7238 1.9987553,599.88376 0.9810942,584.9563 1.5395886,559.93666 3.0952395,550.76309 c 0.6037919,-3.56054 1.1034548,-8.00105 1.1103617,-9.8678 0.00969,-2.61629 0.2441691,-3.30522 1.023209,-3.00629 1.0167907,0.39019 1.212671,-0.15625 2.2804676,-6.36088 0.254716,-1.4801 0.7240127,-2.52985 1.042881,-2.33279 0.5563083,0.34382 2.1278812,-5.60335 2.1507092,-8.13876 0.0085,-0.94506 0.149432,-1.005 0.619505,-0.26344 0.45448,0.71697 0.722292,0.53491 1.058114,-0.71931 0.247291,-0.92356 0.454041,-2.4266 0.459442,-3.3401 0.0055,-0.92225 0.329706,-1.46316 0.729122,-1.21631 0.395615,0.24437 0.719299,-0.06 0.719299,-0.67685 0,-0.61678 0.310691,-1.12141 0.690426,-1.12141 0.379734,0 1.078338,-1.29472 1.552454,-2.87719 0.474117,-1.58247 1.108761,-2.87719 1.410321,-2.87719 0.30156,0 0.76157,-0.97106 1.022245,-2.15791 0.260675,-1.18684 0.746817,-2.15788 1.080318,-2.15788 0.3335,0 0.981237,-1.13587 1.439416,-2.52419 0.458178,-1.38828 1.104311,-2.35653 1.435851,-2.15163 0.33154,0.205 0.81076,-0.57428 1.064934,-1.73153 0.254172,-1.15725 0.927882,-2.28279 1.497129,-2.50125 0.569247,-0.21844 1.034995,-0.84332 1.034995,-1.38863 0,-0.54528 0.641369,-1.76925 1.425265,-2.71994 2.274396,-2.75826 2.473251,-3.0517 3.608657,-5.32498 0.592775,-1.18685 1.482911,-2.41675 1.978074,-2.7331 0.495164,-0.31637 0.900295,-1.28934 0.900295,-2.16216 0,-1.07144 0.700942,-1.89716 2.157901,-2.5421 1.477586,-0.65403 2.157897,-1.46669 2.157897,-2.57766 0,-1.03265 0.653748,-1.92037 1.798249,-2.44184 1.09773,-0.50016 1.798247,-1.41535 1.798247,-2.34935 0,-1.80272 3.313027,-6.0151 3.936921,-5.00563 0.668758,1.08209 3.256071,-1.52722 3.256071,-3.28373 0,-2.12347 12.461735,-14.86558 13.511668,-13.81564 0.986733,0.98672 2.312919,0.11906 2.312919,-1.51313 0,-1.63085 4.78766,-6.79485 5.392427,-5.81632 0.749982,1.2135 1.800565,0.80678 1.800565,-0.69707 0,-0.82128 0.834108,-1.85222 1.978075,-2.44481 1.087939,-0.56357 4.082022,-2.71576 6.65352,-4.78267 5.875774,-4.72278 24.84822,-17.26287 33.61896,-22.2209 10.51889,-5.94623 30.42526,-15.31781 43.34607,-20.40657 10.81097,-4.25778 32.68559,-11.4473 48.19305,-15.83955 5.46737,-1.54854 6.11405,-1.91216 6.11405,-3.43785 0,-1.42697 -1.76537,-2.78297 -10.78949,-8.28755 -9.03773,-5.51288 -10.82644,-6.8876 -11.01709,-8.46726 -0.17147,-1.42063 -0.6346,-1.88585 -1.87743,-1.88585 -1.16673,0 -2.92931,-1.527 -6.01937,-5.21491 -2.40325,-2.86819 -6.65644,-7.11826 -9.45154,-9.44455 -2.97642,-2.47722 -5.08199,-4.78685 -5.08199,-5.57457 0,-0.73972 -0.30897,-1.34494 -0.68661,-1.34494 -1.22442,0 -4.34849,-3.62263 -4.34849,-5.04247 0,-0.75935 -0.61014,-1.70713 -1.35586,-2.10622 -0.74572,-0.3991 -1.5611,-1.54338 -1.81195,-2.54285 -0.25084,-0.9995 -0.93545,-1.81725 -1.52134,-1.81725 -0.5912,0 -1.06524,-0.65022 -1.06524,-1.46116 0,-0.80366 -0.45632,-1.63629 -1.01403,-1.85029 -0.55773,-0.21406 -1.19628,-1.11522 -1.41902,-2.00269 -0.35602,-1.41851 -1.00346,-2.3833 -3.9869,-5.94119 -0.38072,-0.45403 -1.18942,-1.91061 -1.79712,-3.23685 -1.24667,-2.72074 -2.50868,-4.7659 -3.8312,-6.20867 -0.49452,-0.53948 -0.89912,-1.44328 -0.89912,-2.00845 0,-0.56516 -0.44951,-1.02757 -0.9989,-1.02757 -0.5721,0 -1.20069,-1.07566 -1.47119,-2.51755 -0.25975,-1.38465 -0.75559,-2.51754 -1.10185,-2.51754 -0.34626,0 -0.84283,-0.97106 -1.10351,-2.1579 -0.26069,-1.18684 -0.73349,-2.1579 -1.0507,-2.1579 -0.31722,0 -0.94353,-1.45658 -1.39181,-3.23685 -0.48519,-1.92684 -1.22688,-3.23684 -1.83264,-3.23684 -0.66423,0 -1.30229,-1.43626 -1.83743,-4.13598 -1.16523,-5.87845 -1.46088,-6.72554 -2.19006,-6.27489 -0.35553,0.21972 -0.8294,-0.50386 -1.05304,-1.60798 -0.93342,-4.6083 -2.64238,-9.587 -3.62969,-10.57431 -0.6907,-0.69071 -1.9721,-7.11541 -3.69843,-18.54331 -2.55017,-16.88159 -2.64286,-18.18306 -2.67974,-37.62681 -0.0358,-18.88401 0.0866,-20.85831 1.96233,-31.64917 1.10029,-6.32984 2.26646,-14.35169 2.5915,-17.82635 0.56203,-6.00812 1.31744,-8.41927 2.02074,-6.45 0.55885,1.56477 1.63983,0.97206 1.63983,-0.89913 0,-1.22889 -0.39854,-1.80173 -1.25877,-1.80926 -0.83264,-0.007 -0.97242,-0.19316 -0.41288,-0.54903 0.46524,-0.2959 1.22232,-2.15213 1.68242,-4.12495 1.33815,-5.73794 1.30006,-5.66739 2.51529,-4.65883 0.8924,0.74062 1.07044,0.62591 1.07044,-0.68967 0,-0.86793 0.44607,-2.02412 0.99127,-2.56931 0.54519,-0.5452 1.22011,-3.12832 1.49984,-5.74027 0.42644,-3.982 0.67294,-4.61259 1.52628,-3.90438 0.80629,0.66916 1.01771,0.60218 1.01771,-0.3224 0,-0.64186 0.27187,-1.16702 0.60416,-1.16702 0.3323,0 1.03147,-1.29474 1.55374,-2.8772 0.52226,-1.58246 1.18634,-2.8772 1.47574,-2.8772 0.28941,0 0.73911,-0.84831 0.99933,-1.88514 0.26022,-1.03683 0.94269,-2.35468 1.51658,-2.92858 1.27989,-1.27989 1.37063,-4.28527 0.14431,-4.78009 -0.49451,-0.19953 0.0212,-0.38836 1.1463,-0.41959 1.412,-0.0392 2.16191,-0.50229 2.42161,-1.49539 0.20691,-0.79123 0.58312,-1.4386 0.83602,-1.4386 0.25291,0 0.91751,-1.051972 1.47691,-2.337721 0.55939,-1.285746 1.20577,-2.499563 1.43638,-2.697373 0.23063,-0.197813 1.38853,-1.816228 2.57315,-3.596496 1.18462,-1.780265 2.31661,-3.39869 2.51553,-3.596496 0.94778,-0.942483 2.15992,-3.718906 2.15992,-4.947355 0,-0.876954 0.6754,-1.539899 1.87576,-1.841168 1.51087,-0.379207 1.81136,-0.807658 1.54473,-2.20251 -0.26682,-1.395749 0.067,-1.870481 1.72073,-2.446969 1.47614,-0.514589 2.05177,-1.192493 2.05177,-2.416345 0,-2.172459 3.65926,-5.773521 5.2475,-5.164054 0.835,0.320416 1.29582,-0.07 1.62344,-1.375349 0.25163,-1.002521 0.24606,-2.164847 -0.0122,-2.582948 -0.2584,-0.418098 -0.18181,-0.760179 0.17022,-0.760179 0.35202,0 3.19228,-2.584376 6.3117,-5.743056 3.45209,-3.495543 5.93063,-5.484096 6.33338,-5.081336 0.75168,0.751679 2.62438,-0.796045 2.62438,-2.16896 0,-0.477413 0.76273,-1.57489 1.69494,-2.438844 0.93223,-0.863951 1.86283,-2.033966 2.06799,-2.600029 0.2995,-0.826292 0.56095,-0.851939 1.32612,-0.130094 1.43162,1.350587 2.10395,1.091411 2.10395,-0.811048 0,-2.363063 1.79147,-3.805178 3.23684,-2.605623 0.91242,0.757239 1.07895,0.604301 1.07895,-0.990873 0,-1.139361 0.39968,-1.886325 1.00931,-1.886325 0.55513,0 4.35843,-2.233835 8.45177,-4.964073 20.16739,-13.451536 40.38573,-22.356632 64.40317,-28.3661444 17.52592,-4.3852398 23.95985,-4.9577544 51.65348,-4.5963188 22.98113,0.2999317 24.99848,0.4333935 33.44743,2.2127895 25.31841,5.3322004 52.60111,16.0710097 68.86567,27.1063687 2.87166,1.948408 6.43522,4.182234 7.91907,4.964054 1.48381,0.781823 4.15441,2.718766 5.9347,4.304316 1.78025,1.585549 3.3181,2.650838 3.41744,2.367306 0.0994,-0.283531 3.00113,2.132776 6.44842,5.369574 3.44728,3.236796 6.46957,5.827347 6.71616,5.756775 0.64172,-0.183657 11.14499,10.517157 10.9423,11.148123 -0.0928,0.288844 1.42688,1.870562 3.37701,3.51494 1.95015,1.644381 3.64447,3.64939 3.76519,4.455582 0.12062,0.806198 0.85319,1.822546 1.62769,2.258563 2.07016,1.165395 3.49697,2.59101 2.59322,2.59101 -1.12103,0 0.60047,2.774051 3.0421,4.902161 1.10466,0.962798 1.84163,1.917387 1.63769,2.121315 -0.20406,0.203907 0.59163,1.58589 1.76788,3.071027 1.17625,1.485146 2.13863,2.918039 2.13863,3.184217 0,0.266188 0.77684,1.514334 1.72631,2.773683 2.0391,2.704623 3.87769,5.906462 8.06176,14.039263 1.69635,3.29733 3.46451,6.45325 3.9292,7.01317 0.46468,0.55992 0.60497,1.01803 0.31187,1.01803 -0.29312,0 0.29719,1.08866 1.31216,2.41924 1.01488,1.33058 2.06235,3.35361 2.32772,4.49562 1.07307,4.61803 2.67585,8.90321 3.62451,9.69052 0.55266,0.45867 1.00484,1.61961 1.00484,2.57984 0,2.22494 1.78604,5.70218 3.41667,6.65193 1.10397,0.643 1.04318,0.73587 -0.49422,0.75505 l -1.75298,0.0219 1.87123,1.97808 c 1.39472,1.47433 2.00041,3.07714 2.37844,6.29387 0.27906,2.37368 0.90415,4.80132 1.38931,5.39474 1.00547,1.22987 3.05698,21.18995 3.73876,36.37618 0.46231,10.29759 -0.89875,37.7567 -1.90488,38.43095 -0.569,0.38131 -4.32985,20.15101 -4.32776,22.74969 6.9e-4,0.84168 -0.44559,1.90117 -0.99172,2.35443 -0.54612,0.45324 -1.56253,3.75639 -2.25866,7.34032 -0.7099,3.65498 -1.50275,6.13266 -1.80559,5.64266 -0.3795,-0.61405 -0.65822,-0.47138 -0.9381,0.4802 -0.343,1.16614 -1.91697,9.47344 -1.91697,10.11751 0,0.12516 -0.69756,0.22753 -1.5501,0.22753 -1.45687,0 -1.47841,0.0792 -0.35809,1.31715 1.40597,1.55356 0.90922,2.27935 -1.56003,2.27935 -1.73298,0 -1.74926,0.0449 -0.51219,1.41181 1.664,1.83871 0.93512,3.62329 -1.47985,3.62329 -1.61525,0 -1.77116,0.16597 -1.01344,1.07894 0.73882,0.89025 0.67182,1.07895 -0.38306,1.07895 -1.21735,0 -1.21622,0.0688 0.0219,1.4386 1.27085,1.40428 1.25635,1.4386 -0.60781,1.4386 -1.218,0 -1.90975,0.39081 -1.90975,1.07895 0,0.59342 -0.36332,1.07895 -0.80735,1.07895 -0.55784,0 -0.53059,0.3335 0.0881,1.07895 0.75159,0.90563 0.63094,1.07895 -0.7511,1.07895 -0.90562,0 -1.44619,0.20037 -1.20128,0.44528 0.245,0.24491 -0.0434,0.93401 -0.64078,1.53134 -0.59735,0.59734 -0.91579,1.52986 -0.70763,2.07227 0.21875,0.57018 -0.085,0.9862 -0.72037,0.9862 -0.60438,0 -0.89879,0.32369 -0.65429,0.7193 0.24438,0.39562 0.0747,0.7193 -0.37715,0.7193 -0.45191,0 -0.68354,0.40461 -0.51466,0.89913 0.16875,0.49451 -0.33925,1.46557 -1.1291,2.15789 -0.78981,0.69233 -1.17515,1.25878 -0.85628,1.25878 0.31888,0 -0.16656,0.64737 -1.07897,1.4386 -0.91228,0.79123 -1.42422,1.4386 -1.13763,1.4386 0.28657,0 -0.006,0.52726 -0.65059,1.17169 -0.64444,0.64444 -1.00141,1.61547 -0.79325,2.15788 0.21031,0.54797 -0.0722,0.98622 -0.6355,0.98622 -1.49782,0 -2.06654,1.35147 -1.07266,2.54903 0.70291,0.84697 0.63606,1.04744 -0.3491,1.04744 -1.76612,0 -3.36606,1.77766 -2.43656,2.7072 0.51316,0.51315 -0.0525,1.03268 -1.81997,1.67184 -1.96154,0.70932 -2.38438,1.14444 -1.79835,1.85054 1.08385,1.30594 -2.02244,4.99628 -4.67982,5.55975 -1.68772,0.35785 -1.91078,0.62566 -1.21725,1.46132 0.69222,0.83409 -0.31938,2.13038 -5.4732,7.01351 -8.5846,8.13367 -14.41714,13.48852 -17.85721,16.39468 -1.58247,1.33685 -3.52457,3.26826 -4.31582,4.29201 -1.00969,1.30641 -1.96444,1.78506 -3.20241,1.6055 -1.48729,-0.21562 -1.62522,-0.0888 -0.87982,0.80938 0.73522,0.88584 0.56497,1.14528 -1.01119,1.54087 -1.0424,0.26157 -3.55531,1.59363 -5.58432,2.96001 -2.02897,1.36641 -4.14813,2.48435 -4.70925,2.48435 -0.81869,0 -0.78507,0.25968 0.17031,1.31544 0.65472,0.72347 1.19041,1.68834 1.19041,2.14419 0,0.45581 0.89016,1.01069 1.97809,1.233 12.21005,2.49528 34.55165,9.57179 53.17505,16.84277 10.91587,4.26179 38.33288,17.65794 46.26808,22.60691 2.96709,1.85054 6.59941,3.55888 8.07179,3.79635 1.72331,0.27782 2.82757,0.90604 3.09957,1.76301 0.2325,0.73215 1.45534,2.03844 2.71769,2.90281 1.26234,0.86435 5.85573,4.24054 10.20748,7.50261 4.35176,3.26207 9.20224,6.60932 10.77883,7.43835 1.5766,0.829 2.57841,1.50732 2.22622,1.50732 -0.35215,0 -0.0544,0.64734 0.66163,1.43859 0.71606,0.79122 1.68185,1.4386 2.14625,1.4386 0.46438,0 2.40076,1.78425 4.3031,3.96498 1.90232,2.18075 3.81892,3.89188 4.2591,3.8025 1.06285,-0.21594 10.86599,9.62102 10.64886,10.68546 -0.0931,0.45656 1.61798,2.35706 3.80248,4.22335 2.1845,1.86628 3.97185,3.82975 3.97185,4.36328 0,0.5335 0.94494,1.66866 2.09988,2.52254 1.1549,0.85387 1.95544,1.92881 1.77897,2.38875 -0.17656,0.45994 1.61572,3.07594 3.98272,5.81335 2.36698,2.73742 4.1687,5.11204 4.00379,5.27695 -0.165,0.165 1.14397,2.17616 2.90863,4.46948 1.76466,2.29328 3.20847,4.47425 3.20847,4.84657 0,0.37231 0.66841,1.52665 1.48535,2.56525 0.81694,1.03856 1.30603,2.17844 1.08688,2.53303 -0.21907,0.3546 0.10343,1.06132 0.7169,1.57044 0.61347,0.50913 2.10101,3.05438 3.3056,5.65608 1.2046,2.60172 2.76813,5.37775 3.47448,6.16897 0.70634,0.79122 1.50828,2.57151 1.78209,3.95614 0.83772,4.23631 2.06882,6.46885 3.60941,6.54541 1.24469,0.0619 1.21113,0.13688 -0.24437,0.54566 l -1.6871,0.47397 1.50729,1.36406 c 0.829,0.75022 1.50728,2.01538 1.50728,2.81141 0,0.79607 0.95447,5.03473 2.12107,9.41924 3.99366,15.00964 4.57316,19.63837 4.64535,37.10349 0.0619,15.00096 -0.58147,31.6793 -1.43616,37.22375 l -0.36038,2.33772 H 320.753 c -277.379018,0 -317.151973,-0.13156 -317.5045694,-1.05044 z"
     id="path1" />
</svg>
